<svg xmlns="http://www.w3.org/2000/svg" viewBox="0 0 26 28">
  <path d="M12.2 7.4c0 1.7-1 3.8-3 3.8-2.5 0-4-3.2-4-5.4 0-1.7 1-3.8 3-3.8 2.5 0 4 3.2 4 5.4zm-5.4 7.5c0 1.5-.8 3.1-2.5 3.1C1.8 18 0 15 0 12.7c0-1.5.8-3.1 2.5-3.1 2.5 0 4.3 3 4.3 5.3zm6.2-.4c3.8 0 9 5.5 9 9.2 0 2-1.6 2.3-3.2 2.3-2.1 0-3.8-1.4-5.8-1.4S9.1 26 6.9 26C5.3 26 4 25.5 4 23.7c0-3.7 5.2-9.2 9-9.2zm3.7-3.3c-2 0-2.9-2-2.9-3.8 0-2.2 1.5-5.4 4-5.4 2 0 3 2 3 3.8 0 2.2-1.5 5.4-4 5.4zm6.8-1.6c1.7 0 2.5 1.6 2.5 3 0 2.4-1.8 5.4-4.3 5.4-1.7 0-2.5-1.6-2.5-3 0-2.3 1.8-5.4 4.3-5.4z"/>
</svg>
