<svg xmlns="http://www.w3.org/2000/svg"  viewBox="0 0 64 64" width="64px" height="64px"><linearGradient id="SVGID_1_" x1="32" x2="32" y1="5.34" y2="56.998" gradientUnits="userSpaceOnUse"><stop offset="0" stop-color="#1a6dff"/><stop offset="1" stop-color="#c822ff"/></linearGradient><path fill="url(#SVGID_1_)" d="M57.9,28.5L35.5,6.1c-0.9-0.9-2.2-1.5-3.5-1.5s-2.6,0.5-3.5,1.5L6.1,28.5c-0.9,0.9-1.5,2.2-1.5,3.5	s0.5,2.6,1.5,3.5l22.3,22.3c0.9,0.9,2.2,1.5,3.5,1.5s2.6-0.5,3.5-1.5l22.3-22.3c0.9-0.9,1.5-2.2,1.5-3.5S58.8,29.4,57.9,28.5z M56.5,34.1L34.1,56.5c-1.1,1.1-3.1,1.1-4.2,0L7.5,34.1C7,33.6,6.7,32.8,6.7,32s0.3-1.6,0.9-2.1l16-16l6.5,6.5h0V43h2V22.4	l10.8,10.8l1.4-1.4L24.9,12.5l5-5C30.4,7,31.2,6.7,32,6.7s1.6,0.3,2.1,0.9l22.3,22.3c0.6,0.6,0.9,1.3,0.9,2.1S57,33.6,56.5,34.1z"/><linearGradient id="SVGID_2_" x1="31" x2="31" y1="39" y2="47.213" gradientUnits="userSpaceOnUse"><stop offset="0" stop-color="#6dc7ff"/><stop offset="1" stop-color="#e6abff"/></linearGradient><circle cx="31" cy="43" r="4" fill="url(#SVGID_2_)"/><linearGradient id="SVGID_3_" x1="31" x2="31" y1="17.043" y2="24.326" gradientUnits="userSpaceOnUse"><stop offset="0" stop-color="#6dc7ff"/><stop offset="1" stop-color="#e6abff"/></linearGradient><circle cx="31" cy="21" r="4" fill="url(#SVGID_3_)"/><g><linearGradient id="SVGID_4_" x1="43" x2="43" y1="28.021" y2="35.733" gradientUnits="userSpaceOnUse"><stop offset="0" stop-color="#6dc7ff"/><stop offset="1" stop-color="#e6abff"/></linearGradient><circle cx="43" cy="32" r="4" fill="url(#SVGID_4_)"/></g></svg>