<svg xmlns="http://www.w3.org/2000/svg"  viewBox="0 0 64 64" width="64px" height="64px"><path fill="#f6d397" d="M5.015,7.244l5.466,45.246c0.194,1.603,1.337,2.935,2.9,3.379l17.535,4.977	c0.709,0.201,1.46,0.206,2.172,0.013l18.442-4.996c1.614-0.437,2.789-1.817,2.955-3.471l4.549-45.187C59.153,6.024,58.22,5,57.025,5	H7.019C5.809,5,4.87,6.051,5.015,7.244z"/><path fill="#f9e3ae" d="M52.357,10H32v46c0.298,0.002,0.595-0.039,0.885-0.123l15.002-4.371	c1.313-0.382,2.269-1.59,2.404-3.037l3.701-36.539C54.088,10.896,53.329,10,52.357,10z"/><path fill="#8d6c9f" d="M32.025,62c-0.465,0-0.93-0.064-1.382-0.191l-17.536-4.978c-1.956-0.556-3.377-2.213-3.619-4.221	L4.021,7.364c-0.103-0.85,0.165-1.705,0.733-2.347C5.328,4.371,6.153,4,7.019,4h50.007c0.854,0,1.672,0.363,2.244,0.995	c0.567,0.628,0.845,1.47,0.76,2.311L55.48,52.492c-0.206,2.051-1.688,3.794-3.688,4.336L33.35,61.824	C32.916,61.941,32.471,62,32.025,62z M7.019,6c-0.298,0-0.57,0.122-0.767,0.344C6.06,6.561,5.973,6.838,6.008,7.124l0,0	l5.467,45.246c0.146,1.206,1.001,2.202,2.18,2.537l17.535,4.977c0.533,0.152,1.103,0.155,1.637,0.009l18.442-4.996	c1.205-0.326,2.098-1.374,2.222-2.605l4.549-45.187c0.028-0.284-0.062-0.557-0.253-0.769C57.59,6.119,57.319,6,57.025,6H7.019z"/><path fill="#8d6c9f" d="M57,12c-0.553,0-1-0.448-1-1V9c0-0.552,0.447-1,1-1s1,0.448,1,1v2C58,11.552,57.553,12,57,12z M52,12	c-0.553,0-1-0.448-1-1V9c0-0.552,0.447-1,1-1s1,0.448,1,1v2C53,11.552,52.553,12,52,12z M47,12c-0.553,0-1-0.448-1-1V9	c0-0.552,0.447-1,1-1s1,0.448,1,1v2C48,11.552,47.553,12,47,12z M42,12c-0.553,0-1-0.448-1-1V9c0-0.552,0.447-1,1-1s1,0.448,1,1v2	C43,11.552,42.553,12,42,12z M37,12c-0.553,0-1-0.448-1-1V9c0-0.552,0.447-1,1-1s1,0.448,1,1v2C38,11.552,37.553,12,37,12z M32,12	c-0.553,0-1-0.448-1-1V9c0-0.552,0.447-1,1-1s1,0.448,1,1v2C33,11.552,32.553,12,32,12z M27,12c-0.553,0-1-0.448-1-1V9	c0-0.552,0.447-1,1-1s1,0.448,1,1v2C28,11.552,27.553,12,27,12z M22,12c-0.553,0-1-0.448-1-1V9c0-0.552,0.447-1,1-1s1,0.448,1,1v2	C23,11.552,22.553,12,22,12z M17,12c-0.553,0-1-0.448-1-1V9c0-0.552,0.447-1,1-1s1,0.448,1,1v2C18,11.552,17.553,12,17,12z M12,12	c-0.553,0-1-0.448-1-1V9c0-0.552,0.447-1,1-1s1,0.448,1,1v2C13,11.552,12.553,12,12,12z M7,12c-0.553,0-1-0.448-1-1V9	c0-0.552,0.447-1,1-1s1,0.448,1,1v2C8,11.552,7.553,12,7,12z"/><path fill="#faefde" d="M24,19c0,8.333,0,16.667,0,25c-3-0.667-6-1.333-9-2c0.205,2,0.41,4,0.615,6	c4.462,1.272,8.923,2.543,13.385,3.815V19C27.333,19,25.667,19,24,19z"/><path fill="#faefde" d="M49.821,24.048L50.256,19C45.171,19,40.085,19,35,19c0,7.333,0,14.667,0,22	c2.982-0.689,5.964-1.378,8.946-2.066l-0.316,4.733C40.754,44.444,37.877,45.222,35,46c0,2,0,4,0,6	c4.244-1.219,8.488-2.437,12.732-3.656l1.33-15.461C46.042,33.255,43.021,33.628,40,34c0-3.333,0-6.667,0-10	C43.274,24.016,46.547,24.032,49.821,24.048z"/><path fill="#8d6c9f" d="M29,52.815c-0.092,0-0.184-0.013-0.274-0.038l-13.385-3.815c-0.394-0.112-0.679-0.453-0.721-0.86	l-0.615-6c-0.032-0.32,0.091-0.636,0.33-0.849c0.241-0.214,0.567-0.299,0.882-0.229L23,42.753V19c0-0.552,0.447-1,1-1h5	c0.553,0,1,0.448,1,1v32.815c0,0.313-0.147,0.609-0.397,0.798C29.427,52.746,29.215,52.815,29,52.815z M16.541,47.224L28,50.49V20	h-3v24c0,0.303-0.138,0.59-0.374,0.78c-0.237,0.19-0.546,0.262-0.843,0.196l-7.647-1.699L16.541,47.224z"/><path fill="#8d6c9f" d="M35,53c-0.215,0-0.426-0.069-0.602-0.201C34.147,52.61,34,52.314,34,52v-6	c0-0.452,0.303-0.848,0.739-0.965l7.94-2.147l0.179-2.677l-7.634,1.763c-0.293,0.071-0.607-0.001-0.847-0.191S34,41.305,34,41V19	c0-0.552,0.447-1,1-1h15.257c0.28,0,0.548,0.118,0.737,0.324c0.189,0.207,0.283,0.483,0.259,0.762l-0.436,5.048	c-0.044,0.519-0.521,0.946-1.001,0.914L41,25.005v7.864l7.94-0.979c0.296-0.036,0.599,0.063,0.816,0.272	c0.217,0.209,0.328,0.505,0.302,0.806l-1.33,15.461c-0.035,0.413-0.322,0.761-0.72,0.875l-12.732,3.655	C35.186,52.987,35.093,53,35,53z M36,46.766v3.907l10.795-3.1l1.165-13.546l-7.838,0.966c-0.281,0.034-0.569-0.054-0.784-0.244	S39,34.287,39,34V24c0-0.266,0.106-0.521,0.295-0.709s0.413-0.286,0.71-0.291l8.899,0.044L49.167,20H36v19.743l7.722-1.783	c0.307-0.073,0.632,0.007,0.873,0.213c0.241,0.205,0.37,0.512,0.35,0.828l-0.316,4.733c-0.028,0.426-0.325,0.787-0.737,0.898	L36,46.766z"/></svg>